#N canvas 266 25 961 632 10;
#X obj 35 206 allOsc~;
#X floatatom 35 143 5 0 0 0 - - -, f 5;
#X obj 35 298 tabwrite~ cosine;
#X obj 48 278 tabwrite~ triangle;
#X obj 61 258 tabwrite~ sawtooth;
#X obj 74 237 tabwrite~ squarewave;
#N canvas 0 22 450 278 (subpatch) 0;
#X array cosine 512 float 2;
#X coords 0 1 511 -1 160 100 1 0 0;
#X restore 243 136 graph;
#N canvas 0 22 450 278 (subpatch) 0;
#X array triangle 512 float 2;
#X coords 0 1 511 -1 160 100 1 0 0;
#X restore 243 256 graph;
#N canvas 0 22 450 278 (subpatch) 0;
#X array sawtooth 512 float 2;
#X coords 0 1 511 -1 160 100 1 0 0;
#X restore 243 376 graph;
#N canvas 0 22 450 278 (subpatch) 0;
#X array squarewave 512 float 2;
#X coords 0 1 511 -1 160 100 1 0 0;
#X restore 243 496 graph;
#X obj 131 142 tgl 15 0 empty empty empty 17 7 0 10 -262144 -1 -1 0
1;
#X obj 131 162 metro 100;
#X obj 131 184 t b b b b;
#X obj 26 9 cnv 15 320 40 empty empty empty 20 12 0 14 -204786 -66577
0;
#X text 29 19 All four standard waveforms oscillator;
#X text 436 200 inlets:;
#X text 447 276 4 (control): phase reset (0 - 1);
#X text 437 331 outlets:;
#X text 435 24 Arguments: none. I found it a bit to difficult to use
arguments in case no signal is connected to the respective inlet \,
so I disabled them altogether. You're more than welcome to hack the
code and set this feature :);
#X text 437 92 You can set predifined arguments like this ->;
#X obj 722 91 loadbang;
#X msg 722 113 220 0.5;
#X obj 722 135 unpack;
#X text 449 295 * Accepts floats too;
#X text 448 221 1 (singal)*: frequency;
#X text 447 238 2 (signal)*: phase (used for phase modulation);
#N canvas 315 107 605 466 phase-modulation 0;
#X floatatom 33 46 5 0 0 0 - - -, f 5;
#X obj 33 319 *~;
#X obj 33 346 dac~;
#X obj 51 232 hsl 128 15 0 1 0 0 empty empty amp 5 8 0 10 -262144 -1
-1 0 1;
#X obj 48 252 pow 4;
#X obj 48 274 pack f 20;
#X obj 48 296 line~;
#X floatatom 46 93 5 0 0 2 modulator - -, f 5;
#X obj 46 112 osc~;
#X obj 46 134 *~;
#X floatatom 121 66 5 0 0 2 index - -, f 5;
#X obj 121 95 pack f 20;
#X obj 121 117 line~;
#N canvas 0 22 450 278 (subpatch) 0;
#X array pm_allOsc 512 float 2;
#X coords 0 1 511 -1 200 140 1;
#X restore 279 168 graph;
#X obj 110 302 tgl 15 0 empty empty empty 17 7 0 10 -262144 -1 -1 0
1;
#X obj 110 322 metro 100;
#X text 128 300 graph it;
#X text 31 392 Since the first three inlets are signal inlets \, you
can modulate them too with oscillators or other signals;
#X obj 59 157 loadbang;
#X text 158 52 'good values' are between 0 and 1;
#X text 163 68 I always take it up to 2 \, or even higher :);
#X obj 33 201 allOsc~;
#X msg 59 179 0.5;
#X obj 110 346 tabwrite~ pm_allOsc;
#X connect 0 0 21 0;
#X connect 1 0 2 0;
#X connect 1 0 2 1;
#X connect 1 0 23 0;
#X connect 3 0 4 0;
#X connect 4 0 5 0;
#X connect 5 0 6 0;
#X connect 6 0 1 1;
#X connect 7 0 8 0;
#X connect 8 0 9 0;
#X connect 9 0 21 1;
#X connect 10 0 11 0;
#X connect 11 0 12 0;
#X connect 12 0 9 1;
#X connect 14 0 15 0;
#X connect 15 0 23 0;
#X connect 18 0 22 0;
#X connect 21 0 1 0;
#X connect 22 0 21 2;
#X restore 439 438 pd phase-modulation;
#X obj 722 157 allOsc~;
#X text 447 256 3 (signal)*: duty cycle (for square wave);
#X text 698 256 (values between 0.01 and 0.99);
#X text 448 352 1 (signal): cosine oscillator;
#X text 448 368 2 (signal): triangle oscillator;
#X text 448 383 3 (signal): sawtooth oscillator;
#X text 448 399 4 (signal): square wave oscillator;
#X text 439 489 Alexandros Drymonitis June 2014;
#X floatatom 61 163 5 0 0 0 - - -, f 5;
#X obj 61 182 sig~ 0.5;
#X text 26 57 [allOsc~] is an oscillator that outputs all four standard
non band-limited waveforms out its four outlets. The cosine has a 180
degree offset in order to be in phase with the triangle;
#X connect 0 0 2 0;
#X connect 0 1 3 0;
#X connect 0 2 4 0;
#X connect 0 3 5 0;
#X connect 1 0 0 0;
#X connect 10 0 11 0;
#X connect 11 0 12 0;
#X connect 12 0 5 0;
#X connect 12 1 4 0;
#X connect 12 2 3 0;
#X connect 12 3 2 0;
#X connect 20 0 21 0;
#X connect 21 0 22 0;
#X connect 22 0 27 0;
#X connect 22 1 27 2;
#X connect 35 0 36 0;
#X connect 36 0 0 2;
